# xmcd
#
# Track frame offsets:
#	150
#	14643
#	28099
#	39949
#	53172
#	66328
#	78230
#	90074
#	102075
#	115660
#	129042
#	142665
#	155560
#	168854
#	181532
#	194995
#	208162
#	218958
#	231530
#	243727
#
# Disc length: 3425 seconds
#
# Revision: 1
# Processed by: cddbd v1.5.2PL0 Copyright (c) Steve Scherf et al.
# Submitted via: audiograbber 1.83.01
#
DISCID=0b0d5f14
DTITLE=Sunnyland Slim - 1947-1961 [CD 3)
DYEAR=2017
DGENRE=Blues
TTITLE0=Hit the road again
TTITLE1=Gin drinkin' baby
TTITLE2=Shake it baby
TTITLE3=Woman trouble
TTITLE4=City of New Orleans
TTITLE5=When I was young
TTITLE6=Bassology
TTITLE7=Worried about my baby
TTITLE8=Troubles of my own
TTITLE9=Worried about my baby
TTITLE10=I done you wrong
TTITLE11=Be my baby
TTITLE12=Going back to Memphis
TTITLE13=The devil is a busy man
TTITLE14=Shake it baby
TTITLE15=Bassology
TTITLE16=Four day bounce
TTITLE17=That woman
TTITLE18=Be mine alone
TTITLE19=Sad and lonesome
EXTD=
EXTT0=
EXTT1=
EXTT2=
EXTT3=
EXTT4=
EXTT5=
EXTT6=
EXTT7=
EXTT8=
EXTT9=
EXTT10=
EXTT11=
EXTT12=
EXTT13=
EXTT14=
EXTT15=
EXTT16=
EXTT17=
EXTT18=
EXTT19=
PLAYORDER=
